<svg width="47" height="48" viewBox="0 0 47 48" fill="none" xmlns="http://www.w3.org/2000/svg">
<path d="M29.8428 20.909C30.2912 20.2044 30.7916 19.4065 31.302 18.5713C35.6043 20.0085 39.7339 22.1514 42.1642 23.5173C43.0219 23.9993 43.2223 25.0426 42.7537 25.8035C38.0571 23.6673 33.911 22.1238 29.8428 20.909Z" fill="#1CBD6B"/>
<path d="M23.8744 21.5984C24.2222 22.1392 24.5216 22.5983 24.7465 22.9407C25.2517 23.71 26.1105 24.044 26.9227 23.9426L27.6541 27.5175C23.9341 27.1252 20.4222 26.8393 16.6641 26.6206L18.0432 20.335C20.096 20.7389 22.0273 21.1557 23.8744 21.5984Z" fill="#F5F06C"/>
<path d="M21.1388 17.1823C21.4947 17.7834 21.857 18.3812 22.2112 18.9565C20.3057 18.5402 18.3547 18.1584 16.3125 17.7856C17.9292 17.5242 19.5698 17.3093 21.1388 17.1823Z" fill="#1CBD6B"/>
<path d="M6.25387 19.9378C7.31702 19.6617 8.71886 19.3133 10.3156 18.955C12.2183 19.2673 14.0162 19.5782 15.7282 19.8941L13.8687 26.4722C11.8388 26.3743 9.71256 26.2919 7.42609 26.2196L5.2311 22.4125C4.67297 21.4444 5.16911 20.2195 6.25387 19.9378Z" fill="#1CBD6B"/>
<path d="M11.7972 33.8009L8.74512 28.5072C10.3097 28.5648 11.8005 28.6282 13.2394 28.699L11.7972 33.8009Z" fill="#1CBD6B"/>
<path d="M16.6017 42.1343L14.1816 37.9367L16.1736 28.8578C20.2953 29.1023 24.0871 29.422 28.1331 29.8568L29.2852 35.4879L19.1047 42.6817C18.2716 43.2704 17.1103 43.0164 16.6017 42.1343Z" fill="#1CBD6B"/>
<path d="M35.936 30.788L32.6331 33.122L31.8682 30.2815C33.1777 30.4379 34.5279 30.6063 35.936 30.788Z" fill="#1CBD6B"/>
<path d="M40.8242 27.3338L38.6385 28.8783C35.9825 28.5113 33.5454 28.1944 31.2319 27.9195L29.9746 23.2501C33.6585 24.3749 37.1492 25.6918 40.8242 27.3338Z" fill="#1CBD6B"/>
<path fill-rule="evenodd" clip-rule="evenodd" d="M26.6385 14.4796C28.5505 14.4796 30.1005 12.9362 30.1005 11.0324C30.1005 9.12866 28.5505 7.58533 26.6385 7.58533C24.7265 7.58533 23.1766 9.12866 23.1766 11.0324C23.1766 12.9362 24.7265 14.4796 26.6385 14.4796ZM26.196 21.9974C26.4056 22.3165 26.8714 22.3165 27.081 21.9974C27.837 20.8461 29.435 18.3774 30.8691 15.9301C31.7622 14.406 32.6969 12.797 32.6969 11.0324C32.6969 7.70082 29.9845 5 26.6385 5C23.2925 5 20.5801 7.70082 20.5801 11.0324C20.5801 12.797 21.5149 14.406 22.408 15.9301C23.8421 18.3774 25.44 20.8461 26.196 21.9974Z" fill="#1CBD6B"/>
</svg>
