<svg width="41" height="41" viewBox="0 0 41 41" fill="none" xmlns="http://www.w3.org/2000/svg">
<path d="M26.6588 17.0722C27.1399 16.3161 27.6769 15.4599 28.2247 14.5636C32.8415 16.1058 37.2731 18.4054 39.8811 19.8712C40.8015 20.3885 41.0166 21.508 40.5137 22.3245C35.4737 20.0322 31.0244 18.3758 26.6588 17.0722Z" fill="#E9AB00"/>
<path d="M20.2549 17.812C20.6281 18.3924 20.9494 18.885 21.1907 19.2524C21.7328 20.078 22.6545 20.4364 23.5261 20.3276L24.3109 24.1639C20.3189 23.7429 16.5502 23.4361 12.5173 23.2014L13.9973 16.4563C16.2002 16.8897 18.2727 17.3369 20.2549 17.812Z" fill="#223327"/>
<path d="M17.3184 13.0729C17.7003 13.718 18.0891 14.3595 18.4692 14.9768C16.4244 14.5301 14.3307 14.1204 12.1392 13.7204C13.8741 13.4398 15.6346 13.2092 17.3184 13.0729Z" fill="#E9AB00"/>
<path d="M1.34555 16.03C2.48643 15.7337 3.99077 15.3598 5.70428 14.9753C7.74612 15.3105 9.67545 15.6441 11.5125 15.9831L9.51715 23.0421C7.33886 22.9371 5.05712 22.8487 2.60347 22.7711L0.248 18.6856C-0.35094 17.6467 0.181474 16.3323 1.34555 16.03Z" fill="#E9AB00"/>
<path d="M7.29406 30.9067L4.01886 25.226C5.69783 25.2878 7.29764 25.3558 8.84168 25.4317L7.29406 30.9067Z" fill="#E9AB00"/>
<path d="M12.4499 39.8494L9.85288 35.3449L11.9906 25.6022C16.4136 25.8646 20.4826 26.2076 24.8245 26.6743L26.0608 32.717L15.136 40.4369C14.2419 41.0686 12.9957 40.7961 12.4499 39.8494Z" fill="#E9AB00"/>
<path d="M33.1982 27.6735L29.6537 30.1782L28.8329 27.13C30.2381 27.2978 31.6871 27.4786 33.1982 27.6735Z" fill="#E9AB00"/>
<path d="M38.4439 23.9667L36.0984 25.6241C33.2483 25.2303 30.6329 24.8903 28.1503 24.5953L26.801 19.5845C30.7543 20.7915 34.5002 22.2047 38.4439 23.9667Z" fill="#E9AB00"/>
<path fill-rule="evenodd" clip-rule="evenodd" d="M23.2202 10.1727C25.272 10.1727 26.9353 8.51649 26.9353 6.47351C26.9353 4.43053 25.272 2.77436 23.2202 2.77436C21.1684 2.77436 19.5051 4.43053 19.5051 6.47351C19.5051 8.51649 21.1684 10.1727 23.2202 10.1727ZM22.7454 18.2402C22.9702 18.5826 23.4702 18.5826 23.695 18.2402C24.5063 17.0048 26.2211 14.3555 27.7601 11.7292C28.7185 10.0937 29.7216 8.36707 29.7216 6.47351C29.7216 2.89829 26.8108 0 23.2202 0C19.6296 0 16.7188 2.89829 16.7188 6.47351C16.7188 8.36707 17.7219 10.0937 18.6803 11.7292C20.2193 14.3555 21.9341 17.0048 22.7454 18.2402Z" fill="#00367B"/>
</svg>
