<svg width="270" height="41" viewBox="0 0 270 41" fill="none" xmlns="http://www.w3.org/2000/svg">
<path d="M27.1203 17.303C27.6015 16.5469 28.1385 15.6907 28.6862 14.7944C33.3031 16.3366 37.7346 18.6362 40.3426 20.1019C41.263 20.6192 41.4781 21.7388 40.9752 22.5553C35.9353 20.2629 31.4859 18.6066 27.1203 17.303Z" fill="#E9AB00"/>
<path d="M20.7164 18.0427C21.0896 18.6232 21.4109 19.1157 21.6522 19.4832C22.1944 20.3088 23.116 20.6672 23.9876 20.5584L24.7725 24.3946C20.7805 23.9737 17.0117 23.6669 12.9789 23.4322L14.4589 16.6871C16.6618 17.1205 18.7343 17.5677 20.7164 18.0427Z" fill="#223327"/>
<path d="M17.7799 13.3037C18.1619 13.9488 18.5506 14.5903 18.9307 15.2076C16.8859 14.7609 14.7922 14.3511 12.6007 13.9511C14.3357 13.6706 16.0962 13.4399 17.7799 13.3037Z" fill="#E9AB00"/>
<path d="M1.80709 16.2607C2.94797 15.9645 4.45231 15.5906 6.16582 15.2061C8.20766 15.5413 10.137 15.8748 11.9741 16.2138L9.97869 23.2729C7.8004 23.1678 5.51866 23.0795 3.06501 23.0018L0.70954 18.9164C0.110601 17.8775 0.643014 16.563 1.80709 16.2607Z" fill="#E9AB00"/>
<path d="M7.7556 31.1375L4.4804 25.4568C6.15937 25.5185 7.75918 25.5866 9.30322 25.6625L7.7556 31.1375Z" fill="#E9AB00"/>
<path d="M12.9115 40.0802L10.3144 35.5756L12.4521 25.8329C16.8751 26.0953 20.9442 26.4384 25.2861 26.905L26.5224 32.9478L15.5975 40.6677C14.7035 41.2994 13.4573 41.0268 12.9115 40.0802Z" fill="#E9AB00"/>
<path d="M33.6597 27.9043L30.1152 30.409L29.2944 27.3607C30.6996 27.5286 32.1486 27.7093 33.6597 27.9043Z" fill="#E9AB00"/>
<path d="M38.9055 24.1975L36.5599 25.8549C33.7098 25.4611 31.0945 25.1211 28.6119 24.826L27.2626 19.8153C31.2159 21.0223 34.9617 22.4355 38.9055 24.1975Z" fill="#E9AB00"/>
<path fill-rule="evenodd" clip-rule="evenodd" d="M23.6817 10.4034C25.7335 10.4034 27.3968 8.74726 27.3968 6.70428C27.3968 4.6613 25.7335 3.00513 23.6817 3.00513C21.63 3.00513 19.9667 4.6613 19.9667 6.70428C19.9667 8.74726 21.63 10.4034 23.6817 10.4034ZM23.2069 18.471C23.4318 18.8134 23.9317 18.8134 24.1566 18.471C24.9679 17.2355 26.6827 14.5862 28.2216 11.96C29.18 10.3245 30.1831 8.59784 30.1831 6.70428C30.1831 3.12906 27.2724 0.23077 23.6817 0.23077C20.0911 0.23077 17.1803 3.12906 17.1803 6.70428C17.1803 8.59784 18.1835 10.3245 19.1419 11.96C20.6808 14.5862 22.3956 17.2355 23.2069 18.471Z" fill="#00367B"/>
<path d="M46.7858 21.4891C46.7858 19.4427 47.2285 17.6226 48.114 16.0287C48.9995 14.4152 50.2293 13.1656 51.8035 12.2802C53.3974 11.375 55.1978 10.9224 57.2049 10.9224C59.6646 10.9224 61.77 11.5718 63.5213 12.8705C65.2726 14.1692 66.4434 15.9401 67.0337 18.1834H61.4847C61.0715 17.3176 60.4812 16.6584 59.7138 16.2058C58.966 15.7532 58.1101 15.5269 57.1459 15.5269C55.5914 15.5269 54.332 16.068 53.3678 17.1503C52.4036 18.2325 51.9216 19.6788 51.9216 21.4891C51.9216 23.2995 52.4036 24.7457 53.3678 25.828C54.332 26.9102 55.5914 27.4514 57.1459 27.4514C58.1101 27.4514 58.966 27.2251 59.7138 26.7725C60.4812 26.3199 61.0715 25.6607 61.4847 24.7949H67.0337C66.4434 27.0381 65.2726 28.8091 63.5213 30.1078C61.77 31.3868 59.6646 32.0263 57.2049 32.0263C55.1978 32.0263 53.3974 31.5836 51.8035 30.6981C50.2293 29.793 48.9995 28.5435 48.114 26.9496C47.2285 25.3557 46.7858 23.5356 46.7858 21.4891Z" fill="#00367B"/>
<path d="M69.1211 23.6143C69.1211 21.922 69.4359 20.4364 70.0656 19.1574C70.7149 17.8784 71.5906 16.8945 72.6925 16.2058C73.7944 15.5171 75.0242 15.1727 76.382 15.1727C77.5429 15.1727 78.5563 15.4089 79.4221 15.8811C80.3076 16.3534 80.9865 16.9732 81.4587 17.7406V15.4089H86.506V31.8788H81.4587V29.547C80.9668 30.3144 80.2781 30.9343 79.3926 31.4065C78.5268 31.8788 77.5134 32.1149 76.3525 32.1149C75.0144 32.1149 73.7944 31.7705 72.6925 31.0818C71.5906 30.3734 70.7149 29.3797 70.0656 28.1007C69.4359 26.802 69.1211 25.3065 69.1211 23.6143ZM81.4587 23.6438C81.4587 22.3845 81.1045 21.3908 80.3962 20.6627C79.7074 19.9346 78.8613 19.5706 77.8578 19.5706C76.8542 19.5706 75.9983 19.9346 75.2899 20.6627C74.6012 21.3711 74.2568 22.3549 74.2568 23.6143C74.2568 24.8736 74.6012 25.8772 75.2899 26.6249C75.9983 27.353 76.8542 27.717 77.8578 27.717C78.8613 27.717 79.7074 27.353 80.3962 26.6249C81.1045 25.8969 81.4587 24.9032 81.4587 23.6438Z" fill="#00367B"/>
<path d="M111.173 15.2318C113.219 15.2318 114.843 15.8516 116.043 17.0913C117.263 18.3309 117.873 20.0527 117.873 22.2566V31.8788H112.855V22.9354C112.855 21.8729 112.57 21.0562 111.999 20.4856C111.448 19.8953 110.681 19.6001 109.697 19.6001C108.713 19.6001 107.936 19.8953 107.365 20.4856C106.814 21.0562 106.539 21.8729 106.539 22.9354V31.8788H101.521V22.9354C101.521 21.8729 101.236 21.0562 100.665 20.4856C100.114 19.8953 99.3467 19.6001 98.3628 19.6001C97.379 19.6001 96.6017 19.8953 96.0311 20.4856C95.4801 21.0562 95.2046 21.8729 95.2046 22.9354V31.8788H90.1574V15.4089H95.2046V17.475C95.7162 16.7863 96.3853 16.2451 97.2117 15.8516C98.0382 15.4384 98.9728 15.2318 100.016 15.2318C101.255 15.2318 102.357 15.4974 103.322 16.0287C104.305 16.56 105.073 17.3176 105.624 18.3014C106.194 17.3963 106.972 16.6584 107.956 16.0877C108.939 15.5171 110.012 15.2318 111.173 15.2318Z" fill="#00367B"/>
<path d="M126.45 17.7406C126.942 16.9732 127.621 16.3534 128.487 15.8811C129.352 15.4089 130.366 15.1727 131.527 15.1727C132.885 15.1727 134.114 15.5171 135.216 16.2058C136.318 16.8945 137.184 17.8784 137.814 19.1574C138.463 20.4364 138.788 21.922 138.788 23.6143C138.788 25.3065 138.463 26.802 137.814 28.1007C137.184 29.3797 136.318 30.3734 135.216 31.0818C134.114 31.7705 132.885 32.1149 131.527 32.1149C130.386 32.1149 129.372 31.8788 128.487 31.4065C127.621 30.9343 126.942 30.3243 126.45 29.5765V39.73H121.403V15.4089H126.45V17.7406ZM133.652 23.6143C133.652 22.3549 133.298 21.3711 132.589 20.6627C131.901 19.9346 131.045 19.5706 130.021 19.5706C129.018 19.5706 128.162 19.9346 127.454 20.6627C126.765 21.3908 126.421 22.3845 126.421 23.6438C126.421 24.9032 126.765 25.8969 127.454 26.6249C128.162 27.353 129.018 27.717 130.021 27.717C131.025 27.717 131.881 27.353 132.589 26.6249C133.298 25.8772 133.652 24.8736 133.652 23.6143Z" fill="#00367B"/>
<path d="M157.699 15.4089V31.8788H152.652V29.6355C152.14 30.3636 151.442 30.9539 150.556 31.4065C149.69 31.8394 148.726 32.0559 147.663 32.0559C146.404 32.0559 145.292 31.7804 144.328 31.2294C143.364 30.6588 142.616 29.8422 142.085 28.7796C141.554 27.717 141.288 26.4675 141.288 25.0311V15.4089H146.306V24.3522C146.306 25.4541 146.591 26.3101 147.162 26.9201C147.732 27.5301 148.5 27.8351 149.464 27.8351C150.448 27.8351 151.225 27.5301 151.796 26.9201C152.366 26.3101 152.652 25.4541 152.652 24.3522V15.4089H157.699Z" fill="#00367B"/>
<path d="M168.024 32.1149C166.588 32.1149 165.309 31.8689 164.187 31.377C163.066 30.8851 162.18 30.216 161.531 29.3699C160.882 28.5041 160.518 27.5399 160.439 26.4773H165.427C165.486 27.048 165.752 27.5104 166.224 27.8646C166.696 28.2188 167.277 28.3959 167.965 28.3959C168.595 28.3959 169.077 28.2778 169.412 28.0417C169.766 27.7859 169.943 27.4612 169.943 27.0677C169.943 26.5954 169.697 26.2511 169.205 26.0346C168.713 25.7985 167.916 25.5427 166.814 25.2672C165.634 24.9917 164.65 24.7064 163.863 24.4112C163.076 24.0964 162.397 23.6143 161.826 22.9649C161.255 22.2959 160.97 21.4006 160.97 20.279C160.97 19.3345 161.226 18.4785 161.738 17.7111C162.269 16.924 163.036 16.3042 164.04 15.8516C165.063 15.399 166.273 15.1727 167.67 15.1727C169.736 15.1727 171.36 15.6843 172.54 16.7076C173.741 17.7308 174.429 19.0885 174.606 20.7808H169.943C169.864 20.2101 169.608 19.7575 169.176 19.423C168.762 19.0885 168.211 18.9213 167.523 18.9213C166.932 18.9213 166.48 19.0393 166.165 19.2754C165.85 19.4919 165.693 19.7969 165.693 20.1904C165.693 20.6627 165.939 21.0169 166.431 21.253C166.942 21.4891 167.729 21.7253 168.792 21.9614C170.012 22.2762 171.006 22.5911 171.773 22.9059C172.54 23.2011 173.209 23.693 173.78 24.3817C174.37 25.0507 174.675 25.9559 174.695 27.0972C174.695 28.0614 174.42 28.9272 173.869 29.6946C173.337 30.4423 172.56 31.0326 171.537 31.4655C170.533 31.8984 169.362 32.1149 168.024 32.1149Z" fill="#00367B"/>
<path d="M198.08 11.5127V31.8788H196.014V15.6155L188.753 31.8788H187.247L179.986 15.6745V31.8788H177.92V11.5127H180.104L187.985 29.1633L195.866 11.5127H198.08Z" fill="#00367B"/>
<path d="M209.821 32.1149C208.306 32.1149 206.938 31.7804 205.718 31.1113C204.518 30.4226 203.564 29.4585 202.855 28.2188C202.167 26.9594 201.822 25.4935 201.822 23.8209C201.822 22.1483 202.176 20.6922 202.885 19.4525C203.593 18.1932 204.557 17.229 205.777 16.56C206.997 15.8713 208.365 15.5269 209.88 15.5269C211.395 15.5269 212.763 15.8713 213.983 16.56C215.222 17.229 216.187 18.1932 216.875 19.4525C217.584 20.6922 217.938 22.1483 217.938 23.8209C217.938 25.4738 217.584 26.9299 216.875 28.1893C216.167 29.4486 215.193 30.4226 213.953 31.1113C212.714 31.7804 211.336 32.1149 209.821 32.1149ZM209.821 30.3144C210.884 30.3144 211.867 30.0783 212.773 29.606C213.678 29.1141 214.406 28.386 214.957 27.4219C215.527 26.438 215.813 25.2377 215.813 23.8209C215.813 22.4041 215.537 21.2137 214.986 20.2495C214.435 19.2656 213.707 18.5375 212.802 18.0653C211.897 17.5734 210.913 17.3274 209.851 17.3274C208.788 17.3274 207.804 17.5734 206.899 18.0653C205.994 18.5375 205.266 19.2656 204.715 20.2495C204.183 21.2137 203.918 22.4041 203.918 23.8209C203.918 25.2377 204.183 26.438 204.715 27.4219C205.266 28.386 205.984 29.1141 206.869 29.606C207.775 30.0783 208.758 30.3144 209.821 30.3144Z" fill="#00367B"/>
<path d="M223.741 19.3345C224.272 18.2129 225.089 17.2979 226.191 16.5895C227.312 15.8811 228.631 15.5269 230.146 15.5269C231.622 15.5269 232.94 15.8713 234.101 16.56C235.262 17.229 236.167 18.1932 236.816 19.4525C237.485 20.6922 237.82 22.1385 237.82 23.7914C237.82 25.4443 237.485 26.9004 236.816 28.1598C236.167 29.4191 235.252 30.3931 234.071 31.0818C232.91 31.7705 231.602 32.1149 230.146 32.1149C228.611 32.1149 227.283 31.7705 226.161 31.0818C225.059 30.3734 224.252 29.4585 223.741 28.3368V31.8788H221.704V10.037H223.741V19.3345ZM235.724 23.7914C235.724 22.4533 235.459 21.3022 234.927 20.338C234.416 19.3542 233.707 18.6064 232.802 18.0948C231.897 17.5832 230.874 17.3274 229.733 17.3274C228.631 17.3274 227.617 17.593 226.692 18.1243C225.787 18.6556 225.069 19.4132 224.538 20.3971C224.006 21.3809 223.741 22.5222 223.741 23.8209C223.741 25.1196 224.006 26.2609 224.538 27.2448C225.069 28.2286 225.787 28.9862 226.692 29.5175C227.617 30.0488 228.631 30.3144 229.733 30.3144C230.874 30.3144 231.897 30.0586 232.802 29.547C233.707 29.0157 234.416 28.2581 234.927 27.2743C235.459 26.2707 235.724 25.1098 235.724 23.7914Z" fill="#00367B"/>
<path d="M242.655 12.7229C242.242 12.7229 241.887 12.5753 241.592 12.2802C241.297 11.985 241.149 11.621 241.149 11.1881C241.149 10.7552 241.297 10.401 241.592 10.1255C241.887 9.83034 242.242 9.68276 242.655 9.68276C243.068 9.68276 243.422 9.83034 243.717 10.1255C244.012 10.401 244.16 10.7552 244.16 11.1881C244.16 11.621 244.012 11.985 243.717 12.2802C243.422 12.5753 243.068 12.7229 242.655 12.7229ZM243.688 15.763V31.8788H241.622V15.763H243.688Z" fill="#00367B"/>
<path d="M250.433 10.037V31.8788H248.367V10.037H250.433Z" fill="#00367B"/>
<path d="M269.692 22.9945C269.692 23.7028 269.673 24.244 269.633 24.6178H256.263C256.322 25.8378 256.617 26.8807 257.148 27.7465C257.679 28.6123 258.378 29.2715 259.244 29.7241C260.109 30.157 261.054 30.3734 262.077 30.3734C263.415 30.3734 264.537 30.0488 265.442 29.3994C266.367 28.7501 266.977 27.8744 267.272 26.7725H269.456C269.063 28.3467 268.216 29.6356 266.918 30.6391C265.639 31.623 264.025 32.1149 262.077 32.1149C260.562 32.1149 259.204 31.7804 258.004 31.1113C256.804 30.4226 255.859 29.4585 255.17 28.2188C254.501 26.9594 254.167 25.4935 254.167 23.8209C254.167 22.1483 254.501 20.6824 255.17 19.423C255.839 18.1637 256.774 17.1995 257.974 16.5305C259.175 15.8614 260.542 15.5269 262.077 15.5269C263.612 15.5269 264.95 15.8614 266.091 16.5305C267.252 17.1995 268.138 18.1046 268.748 19.2459C269.377 20.3675 269.692 21.617 269.692 22.9945ZM267.597 22.9354C267.616 21.7351 267.37 20.7119 266.859 19.8658C266.367 19.0196 265.688 18.3801 264.822 17.9472C263.956 17.5143 263.012 17.2979 261.989 17.2979C260.454 17.2979 259.145 17.7898 258.063 18.7737C256.981 19.7575 256.381 21.1448 256.263 22.9354H267.597Z" fill="#00367B"/>
</svg>
