<svg width="200" height="48" viewBox="0 0 200 48" fill="none" xmlns="http://www.w3.org/2000/svg">
<path d="M29.8424 20.909C30.2908 20.2044 30.7912 19.4065 31.3016 18.5713C35.6039 20.0085 39.7335 22.1514 42.1638 23.5173C43.0215 23.9993 43.2219 25.0426 42.7533 25.8035C38.0567 23.6673 33.9106 22.1238 29.8424 20.909Z" fill="#1CBD6B"/>
<path d="M23.8748 21.5984C24.2226 22.1392 24.522 22.5983 24.7469 22.9407C25.2521 23.71 26.1109 24.044 26.9231 23.9426L27.6545 27.5175C23.9345 27.1252 20.4226 26.8393 16.6645 26.6206L18.0436 20.335C20.0964 20.7389 22.0277 21.1557 23.8748 21.5984Z" fill="#F5F06C"/>
<path d="M21.1384 17.1822C21.4943 17.7833 21.8566 18.3811 22.2108 18.9564C20.3053 18.5401 18.3543 18.1583 16.3121 17.7855C17.9288 17.5241 19.5694 17.3092 21.1384 17.1822Z" fill="#1CBD6B"/>
<path d="M6.25387 19.9378C7.31702 19.6617 8.71886 19.3133 10.3156 18.955C12.2183 19.2673 14.0162 19.5782 15.7282 19.8941L13.8687 26.4722C11.8388 26.3743 9.71256 26.2919 7.42609 26.2196L5.2311 22.4125C4.67297 21.4444 5.16911 20.2195 6.25387 19.9378Z" fill="#1CBD6B"/>
<path d="M11.7971 33.8009L8.74504 28.5072C10.3096 28.5648 11.8004 28.6282 13.2393 28.699L11.7971 33.8009Z" fill="#1CBD6B"/>
<path d="M16.6017 42.1343L14.1816 37.9367L16.1736 28.8578C20.2953 29.1023 24.0871 29.422 28.1331 29.8568L29.2852 35.4879L19.1047 42.6817C18.2716 43.2704 17.1103 43.0164 16.6017 42.1343Z" fill="#1CBD6B"/>
<path d="M35.9362 30.788L32.6333 33.122L31.8684 30.2815C33.1779 30.4379 34.5281 30.6063 35.9362 30.788Z" fill="#1CBD6B"/>
<path d="M40.8246 27.3338L38.6389 28.8783C35.9829 28.5113 33.5458 28.1944 31.2323 27.9195L29.975 23.2501C33.6589 24.3749 37.1496 25.6918 40.8246 27.3338Z" fill="#1CBD6B"/>
<path fill-rule="evenodd" clip-rule="evenodd" d="M26.6381 14.4796C28.5501 14.4796 30.1001 12.9362 30.1001 11.0324C30.1001 9.12866 28.5501 7.58533 26.6381 7.58533C24.7261 7.58533 23.1762 9.12866 23.1762 11.0324C23.1762 12.9362 24.7261 14.4796 26.6381 14.4796ZM26.1956 21.9974C26.4052 22.3165 26.871 22.3165 27.0806 21.9974C27.8366 20.8461 29.4346 18.3774 30.8687 15.9301C31.7618 14.406 32.6965 12.797 32.6965 11.0324C32.6965 7.70082 29.9841 5 26.6381 5C23.2921 5 20.5797 7.70082 20.5797 11.0324C20.5797 12.797 21.5145 14.406 22.4076 15.9301C23.8417 18.3774 25.4396 20.8461 26.1956 21.9974Z" fill="#1CBD6B"/>
<path d="M64.4171 22.0346C64.4171 23.04 64.1831 23.9629 63.7149 24.8035C63.2468 25.6275 62.5279 26.295 61.5582 26.8059C60.5884 27.3169 59.3847 27.5723 57.9468 27.5723H55.2885V33.8022H51V16.4475H57.9468C59.3512 16.4475 60.5383 16.6864 61.508 17.1644C62.4777 17.6424 63.205 18.3016 63.6899 19.1422C64.1747 19.9827 64.4171 20.9468 64.4171 22.0346ZM57.6208 24.2101C58.44 24.2101 59.0503 24.0206 59.4515 23.6415C59.8528 23.2625 60.0534 22.7268 60.0534 22.0346C60.0534 21.3424 59.8528 20.8068 59.4515 20.4277C59.0503 20.0486 58.44 19.8591 57.6208 19.8591H55.2885V24.2101H57.6208Z" fill="#1E1C34"/>
<path d="M65.7971 26.8801C65.7971 25.4627 66.0646 24.2184 66.5996 23.1471C67.1513 22.0758 67.8953 21.2518 68.8316 20.6749C69.7679 20.0981 70.8128 19.8096 71.9664 19.8096C72.9529 19.8096 73.8139 20.0074 74.5496 20.403C75.3019 20.7985 75.8787 21.3177 76.28 21.9604V20.0074H80.5685V33.8022H76.28V31.8492C75.862 32.492 75.2768 33.0111 74.5245 33.4067C73.7888 33.8022 72.9278 34 71.9414 34C70.8045 34 69.7679 33.7116 68.8316 33.1347C67.8953 32.5414 67.1513 31.7091 66.5996 30.6378C66.0646 29.5501 65.7971 28.2975 65.7971 26.8801ZM76.28 26.9048C76.28 25.85 75.979 25.0177 75.3772 24.4079C74.792 23.7981 74.0731 23.4932 73.2204 23.4932C72.3677 23.4932 71.6404 23.7981 71.0385 24.4079C70.4534 25.0012 70.1608 25.8253 70.1608 26.8801C70.1608 27.9349 70.4534 28.7754 71.0385 29.4017C71.6404 30.0115 72.3677 30.3164 73.2204 30.3164C74.0731 30.3164 74.792 30.0115 75.3772 29.4017C75.979 28.7919 76.28 27.9596 76.28 26.9048Z" fill="#1E1C34"/>
<path d="M91.4705 30.2176V33.8022H89.2886C87.7337 33.8022 86.5216 33.4314 85.6522 32.6897C84.7828 31.9316 84.3481 30.7037 84.3481 29.0062V23.5179H82.6427V20.0074H84.3481V16.6452H88.6366V20.0074H91.4454V23.5179H88.6366V29.0556C88.6366 29.4677 88.7369 29.7643 88.9375 29.9456C89.1381 30.1269 89.4725 30.2176 89.9407 30.2176H91.4705Z" fill="#1E1C34"/>
<path d="M96.016 18.5735C95.2636 18.5735 94.645 18.3593 94.1602 17.9308C93.692 17.4858 93.458 16.9419 93.458 16.2991C93.458 15.6399 93.692 15.096 94.1602 14.6675C94.645 14.2225 95.2636 14 96.016 14C96.7516 14 97.3535 14.2225 97.8217 14.6675C98.3065 15.096 98.549 15.6399 98.549 16.2991C98.549 16.9419 98.3065 17.4858 97.8217 17.9308C97.3535 18.3593 96.7516 18.5735 96.016 18.5735ZM98.1477 20.0074V33.8022H93.8592V20.0074H98.1477Z" fill="#1E1C34"/>
<path d="M107.626 34C106.255 34 105.017 33.7116 103.914 33.1347C102.827 32.5579 101.966 31.7338 101.331 30.6625C100.712 29.5913 100.403 28.3387 100.403 26.9048C100.403 25.4874 100.72 24.2431 101.356 23.1718C101.991 22.0841 102.861 21.2518 103.964 20.6749C105.067 20.0981 106.305 19.8096 107.676 19.8096C109.047 19.8096 110.284 20.0981 111.387 20.6749C112.491 21.2518 113.36 22.0841 113.996 23.1718C114.631 24.2431 114.949 25.4874 114.949 26.9048C114.949 28.3222 114.622 29.5748 113.97 30.6625C113.335 31.7338 112.457 32.5579 111.337 33.1347C110.234 33.7116 108.996 34 107.626 34ZM107.626 30.3412C108.445 30.3412 109.139 30.0445 109.707 29.4512C110.292 28.8578 110.585 28.0091 110.585 26.9048C110.585 25.8006 110.301 24.9518 109.732 24.3585C109.18 23.7651 108.495 23.4685 107.676 23.4685C106.84 23.4685 106.146 23.7651 105.594 24.3585C105.042 24.9353 104.767 25.7841 104.767 26.9048C104.767 28.0091 105.034 28.8578 105.569 29.4512C106.121 30.0445 106.806 30.3412 107.626 30.3412Z" fill="#1E1C34"/>
<path d="M135.327 16.8183V33.8022H134.199V19.1422L127.578 33.8022H126.675L120.029 19.1422V33.8022H118.901V16.8183H120.105L127.127 32.3436L134.149 16.8183H135.327Z" fill="#1E1C34"/>
<path d="M145.206 34C143.935 34 142.79 33.7198 141.77 33.1595C140.75 32.5991 139.948 31.7998 139.362 30.7614C138.794 29.7066 138.51 28.4788 138.51 27.0779C138.51 25.6934 138.802 24.4821 139.388 23.4438C139.973 22.389 140.775 21.5896 141.795 21.0457C142.832 20.4854 143.985 20.2052 145.256 20.2052C146.527 20.2052 147.672 20.4854 148.692 21.0457C149.712 21.5896 150.506 22.3807 151.074 23.419C151.659 24.4574 151.952 25.677 151.952 27.0779C151.952 28.4788 151.659 29.7066 151.074 30.7614C150.489 31.7998 149.678 32.5991 148.642 33.1595C147.622 33.7198 146.476 34 145.206 34ZM145.206 33.0111C146.192 33.0111 147.112 32.7969 147.964 32.3684C148.834 31.9234 149.528 31.2559 150.046 30.3659C150.564 29.4759 150.823 28.3799 150.823 27.0779C150.823 25.7923 150.564 24.7046 150.046 23.8146C149.528 22.9246 148.842 22.2653 147.99 21.8368C147.137 21.3918 146.217 21.1693 145.231 21.1693C144.244 21.1693 143.325 21.3918 142.472 21.8368C141.636 22.2653 140.959 22.9246 140.441 23.8146C139.923 24.7046 139.663 25.7923 139.663 27.0779C139.663 28.3799 139.914 29.4759 140.416 30.3659C140.934 31.2559 141.611 31.9234 142.447 32.3684C143.3 32.7969 144.219 33.0111 145.206 33.0111Z" fill="#1E1C34"/>
<path d="M156.243 23.9135C156.661 22.8257 157.372 21.9357 158.375 21.2435C159.378 20.5513 160.59 20.2052 162.011 20.2052C163.282 20.2052 164.411 20.4854 165.397 21.0457C166.4 21.6061 167.178 22.4054 167.729 23.4438C168.298 24.4821 168.582 25.6934 168.582 27.0779C168.582 28.4623 168.298 29.6819 167.729 30.7367C167.178 31.775 166.4 32.5826 165.397 33.1595C164.411 33.7198 163.282 34 162.011 34C160.59 34 159.37 33.6539 158.35 32.9617C157.347 32.2695 156.645 31.3795 156.243 30.2917V33.8022H155.115V15.508H156.243V23.9135ZM167.428 27.0779C167.428 25.8583 167.194 24.8035 166.726 23.9135C166.258 23.0235 165.598 22.3478 164.745 21.8863C163.909 21.4083 162.939 21.1693 161.836 21.1693C160.783 21.1693 159.83 21.4166 158.977 21.911C158.124 22.389 157.455 23.0812 156.971 23.9876C156.486 24.8776 156.243 25.9077 156.243 27.0779C156.243 28.2645 156.486 29.3111 156.971 30.2176C157.455 31.1075 158.124 31.7998 158.977 32.2942C159.83 32.7721 160.783 33.0111 161.836 33.0111C162.939 33.0111 163.909 32.7721 164.745 32.2942C165.598 31.8162 166.258 31.1323 166.726 30.2423C167.194 29.3523 167.428 28.2975 167.428 27.0779Z" fill="#1E1C34"/>
<path d="M172.305 17.3869C172.037 17.3869 171.811 17.3045 171.628 17.1397C171.444 16.9584 171.352 16.7194 171.352 16.4227C171.352 16.1426 171.444 15.9118 171.628 15.7305C171.811 15.5492 172.037 15.4586 172.305 15.4586C172.572 15.4586 172.798 15.5492 172.982 15.7305C173.166 15.9118 173.258 16.1426 173.258 16.4227C173.258 16.7194 173.166 16.9584 172.982 17.1397C172.798 17.3045 172.572 17.3869 172.305 17.3869ZM172.856 20.3782V33.8022H171.728V20.3782H172.856Z" fill="#1E1C34"/>
<path d="M177.861 15.508V33.8022H176.732V15.508H177.861Z" fill="#1E1C34"/>
<path d="M194 26.1879C194 26.7812 193.983 27.2262 193.95 27.5229H182.188C182.221 28.726 182.489 29.7396 182.99 30.5637C183.492 31.3877 184.152 32.0058 184.972 32.4178C185.791 32.8298 186.685 33.0358 187.655 33.0358C188.993 33.0358 190.113 32.7145 191.016 32.0717C191.918 31.4124 192.487 30.5225 192.721 29.4017H193.9C193.632 30.7697 192.947 31.8822 191.843 32.7392C190.74 33.5797 189.344 34 187.655 34C186.384 34 185.247 33.7198 184.244 33.1595C183.241 32.5991 182.455 31.7998 181.887 30.7614C181.318 29.7066 181.034 28.4788 181.034 27.0779C181.034 25.677 181.31 24.4574 181.862 23.419C182.43 22.3807 183.216 21.5896 184.219 21.0457C185.222 20.4854 186.368 20.2052 187.655 20.2052C188.959 20.2052 190.088 20.4854 191.041 21.0457C192.01 21.5896 192.746 22.323 193.248 23.246C193.749 24.1525 194 25.1331 194 26.1879ZM192.871 26.6082C192.922 25.4215 192.704 24.4162 192.219 23.5921C191.751 22.768 191.108 22.1582 190.288 21.7627C189.469 21.3506 188.583 21.1446 187.63 21.1446C186.677 21.1446 185.791 21.3506 184.972 21.7627C184.169 22.1582 183.509 22.768 182.99 23.5921C182.489 24.4162 182.221 25.4215 182.188 26.6082H192.871Z" fill="#1E1C34"/>
</svg>
