<svg width="224" height="31" viewBox="0 0 224 31" fill="none" xmlns="http://www.w3.org/2000/svg">
<path d="M0.324234 12.2584C0.324234 10.2119 0.766976 8.39179 1.65245 6.79793C2.53793 5.18439 3.76776 3.93488 5.34195 3.0494C6.93581 2.14424 8.73628 1.69167 10.7434 1.69167C13.203 1.69167 15.3085 2.34102 17.0598 3.63972C18.8111 4.93842 19.9819 6.70938 20.5722 8.95259H15.0232C14.61 8.08679 14.0196 7.4276 13.2522 6.97502C12.5045 6.52245 11.6485 6.29616 10.6843 6.29616C9.12983 6.29616 7.87048 6.83728 6.90629 7.91953C5.9421 9.00179 5.46001 10.4481 5.46001 12.2584C5.46001 14.0687 5.9421 15.515 6.90629 16.5972C7.87048 17.6795 9.12983 18.2206 10.6843 18.2206C11.6485 18.2206 12.5045 17.9943 13.2522 17.5417C14.0196 17.0892 14.61 16.43 15.0232 15.5642H20.5722C19.9819 17.8074 18.8111 19.5783 17.0598 20.877C15.3085 22.1561 13.203 22.7956 10.7434 22.7956C8.73628 22.7956 6.93581 22.3528 5.34195 21.4674C3.76776 20.5622 2.53793 19.3127 1.65245 17.7188C0.766976 16.125 0.324234 14.3048 0.324234 12.2584Z" fill="#00367B"/>
<path d="M22.6595 14.3835C22.6595 12.6913 22.9744 11.2056 23.604 9.92662C24.2534 8.6476 25.129 7.66373 26.2309 6.97502C27.3329 6.28632 28.5627 5.94197 29.9204 5.94197C31.0814 5.94197 32.0948 6.17809 32.9606 6.65035C33.8461 7.1226 34.5249 7.74244 34.9972 8.50985V6.17809H40.0444V22.648H34.9972V20.3162C34.5053 21.0837 33.8165 21.7035 32.9311 22.1757C32.0653 22.648 31.0519 22.8841 29.8909 22.8841C28.5529 22.8841 27.3329 22.5398 26.2309 21.8511C25.129 21.1427 24.2534 20.149 23.604 18.87C22.9744 17.5713 22.6595 16.0758 22.6595 14.3835ZM34.9972 14.413C34.9972 13.1537 34.643 12.16 33.9346 11.4319C33.2459 10.7039 32.3998 10.3398 31.3962 10.3398C30.3927 10.3398 29.5367 10.7039 28.8283 11.4319C28.1396 12.1403 27.7953 13.1242 27.7953 14.3835C27.7953 15.6429 28.1396 16.6464 28.8283 17.3942C29.5367 18.1222 30.3927 18.4862 31.3962 18.4862C32.3998 18.4862 33.2459 18.1222 33.9346 17.3942C34.643 16.6661 34.9972 15.6724 34.9972 14.413Z" fill="#00367B"/>
<path d="M64.7112 6.001C66.7577 6.001 68.381 6.62083 69.5814 7.8605C70.8014 9.10017 71.4113 10.8219 71.4113 13.0258V22.648H66.3936V13.7047C66.3936 12.6421 66.1083 11.8255 65.5377 11.2548C64.9867 10.6645 64.2193 10.3694 63.2354 10.3694C62.2516 10.3694 61.4743 10.6645 60.9037 11.2548C60.3527 11.8255 60.0772 12.6421 60.0772 13.7047V22.648H55.0595V13.7047C55.0595 12.6421 54.7742 11.8255 54.2035 11.2548C53.6526 10.6645 52.8852 10.3694 51.9013 10.3694C50.9174 10.3694 50.1402 10.6645 49.5695 11.2548C49.0186 11.8255 48.7431 12.6421 48.7431 13.7047V22.648H43.6959V6.17809H48.7431V8.24421C49.2547 7.55551 49.9237 7.01438 50.7502 6.62083C51.5766 6.20761 52.5113 6.001 53.5542 6.001C54.7939 6.001 55.8958 6.26664 56.86 6.79793C57.8438 7.32922 58.6113 8.08679 59.1622 9.07066C59.7329 8.1655 60.5101 7.4276 61.494 6.85696C62.4778 6.28632 63.5503 6.001 64.7112 6.001Z" fill="#00367B"/>
<path d="M79.9885 8.50985C80.4804 7.74244 81.1593 7.1226 82.0251 6.65035C82.8909 6.17809 83.9043 5.94197 85.0652 5.94197C86.423 5.94197 87.6528 6.28632 88.7547 6.97502C89.8567 7.66373 90.7225 8.6476 91.3521 9.92662C92.0015 11.2056 92.3262 12.6913 92.3262 14.3835C92.3262 16.0758 92.0015 17.5713 91.3521 18.87C90.7225 20.149 89.8567 21.1427 88.7547 21.8511C87.6528 22.5398 86.423 22.8841 85.0652 22.8841C83.924 22.8841 82.9106 22.648 82.0251 22.1757C81.1593 21.7035 80.4804 21.0935 79.9885 20.3458V30.4992H74.9413V6.17809H79.9885V8.50985ZM87.1904 14.3835C87.1904 13.1242 86.8362 12.1403 86.1278 11.4319C85.4391 10.7039 84.5831 10.3398 83.5599 10.3398C82.5564 10.3398 81.7004 10.7039 80.992 11.4319C80.3033 12.16 79.959 13.1537 79.959 14.413C79.959 15.6724 80.3033 16.6661 80.992 17.3942C81.7004 18.1222 82.5564 18.4862 83.5599 18.4862C84.5635 18.4862 85.4194 18.1222 86.1278 17.3942C86.8362 16.6464 87.1904 15.6429 87.1904 14.3835Z" fill="#00367B"/>
<path d="M111.237 6.17809V22.648H106.19V20.4048C105.679 21.1328 104.98 21.7232 104.094 22.1757C103.229 22.6086 102.265 22.8251 101.202 22.8251C99.9426 22.8251 98.8308 22.5496 97.8666 21.9986C96.9025 21.428 96.1547 20.6114 95.6234 19.5488C95.0921 18.4862 94.8265 17.2367 94.8265 15.8003V6.17809H99.8442V15.1214C99.8442 16.2234 100.13 17.0793 100.7 17.6893C101.271 18.2993 102.038 18.6043 103.002 18.6043C103.986 18.6043 104.764 18.2993 105.334 17.6893C105.905 17.0793 106.19 16.2234 106.19 15.1214V6.17809H111.237Z" fill="#00367B"/>
<path d="M121.563 22.8841C120.126 22.8841 118.847 22.6382 117.726 22.1462C116.604 21.6543 115.719 20.9853 115.069 20.1391C114.42 19.2733 114.056 18.3092 113.977 17.2466H118.965C119.025 17.8172 119.29 18.2796 119.762 18.6338C120.235 18.988 120.815 19.1651 121.504 19.1651C122.134 19.1651 122.616 19.0471 122.95 18.8109C123.304 18.5551 123.481 18.2304 123.481 17.8369C123.481 17.3646 123.235 17.0203 122.744 16.8038C122.252 16.5677 121.455 16.3119 120.353 16.0364C119.172 15.7609 118.188 15.4756 117.401 15.1805C116.614 14.8656 115.935 14.3835 115.365 13.7342C114.794 13.0652 114.509 12.1698 114.509 11.0482C114.509 10.1037 114.764 9.24775 115.276 8.48034C115.807 7.69325 116.575 7.07341 117.578 6.62083C118.601 6.16825 119.812 5.94197 121.209 5.94197C123.275 5.94197 124.898 6.45357 126.079 7.4768C127.279 8.50001 127.968 9.85775 128.145 11.55H123.481C123.403 10.9794 123.147 10.5268 122.714 10.1923C122.301 9.85775 121.75 9.69049 121.061 9.69049C120.471 9.69049 120.018 9.80856 119.703 10.0447C119.389 10.2611 119.231 10.5661 119.231 10.9597C119.231 11.4319 119.477 11.7861 119.969 12.0223C120.481 12.2584 121.268 12.4945 122.33 12.7306C123.55 13.0455 124.544 13.3603 125.311 13.6751C126.079 13.9703 126.748 14.4622 127.318 15.1509C127.909 15.82 128.214 16.7251 128.233 17.8664C128.233 18.8306 127.958 19.6964 127.407 20.4638C126.876 21.2116 126.098 21.8019 125.075 22.2348C124.072 22.6677 122.901 22.8841 121.563 22.8841Z" fill="#00367B"/>
<path d="M151.618 2.28199V22.648H149.552V6.38471L142.291 22.648H140.786L133.525 6.44374V22.648H131.459V2.28199H133.643L141.524 19.9325L149.404 2.28199H151.618Z" fill="#00367B"/>
<path d="M163.359 22.8841C161.844 22.8841 160.477 22.5496 159.257 21.8806C158.056 21.1919 157.102 20.2277 156.394 18.988C155.705 17.7287 155.361 16.2627 155.361 14.5901C155.361 12.9176 155.715 11.4615 156.423 10.2218C157.132 8.96243 158.096 7.99824 159.316 7.32921C160.536 6.64051 161.903 6.29616 163.419 6.29616C164.934 6.29616 166.301 6.64051 167.521 7.32921C168.761 7.99824 169.725 8.96243 170.414 10.2218C171.122 11.4615 171.476 12.9176 171.476 14.5901C171.476 16.243 171.122 17.6992 170.414 18.9585C169.705 20.2179 168.731 21.1919 167.492 21.8806C166.252 22.5496 164.875 22.8841 163.359 22.8841ZM163.359 21.0837C164.422 21.0837 165.406 20.8475 166.311 20.3753C167.216 19.8833 167.944 19.1553 168.495 18.1911C169.066 17.2072 169.351 16.0069 169.351 14.5901C169.351 13.1734 169.076 11.9829 168.525 11.0187C167.974 10.0348 167.246 9.30678 166.341 8.83453C165.435 8.3426 164.452 8.09663 163.389 8.09663C162.326 8.09663 161.343 8.3426 160.437 8.83453C159.532 9.30678 158.804 10.0348 158.253 11.0187C157.722 11.9829 157.456 13.1734 157.456 14.5901C157.456 16.0069 157.722 17.2072 158.253 18.1911C158.804 19.1553 159.522 19.8833 160.408 20.3753C161.313 20.8475 162.297 21.0837 163.359 21.0837Z" fill="#00367B"/>
<path d="M177.279 10.1037C177.811 8.98211 178.627 8.06712 179.729 7.35873C180.851 6.65035 182.169 6.29616 183.684 6.29616C185.16 6.29616 186.478 6.64051 187.639 7.32921C188.8 7.99824 189.705 8.96243 190.355 10.2218C191.024 11.4615 191.358 12.9077 191.358 14.5606C191.358 16.2135 191.024 17.6696 190.355 18.929C189.705 20.1883 188.79 21.1624 187.61 21.8511C186.449 22.5398 185.14 22.8841 183.684 22.8841C182.149 22.8841 180.821 22.5398 179.7 21.8511C178.598 21.1427 177.791 20.2277 177.279 19.1061V22.648H175.243V0.806189H177.279V10.1037ZM189.263 14.5606C189.263 13.2226 188.997 12.0714 188.466 11.1073C187.954 10.1234 187.246 9.37566 186.341 8.86405C185.435 8.35244 184.412 8.09663 183.271 8.09663C182.169 8.09663 181.156 8.36227 180.231 8.89356C179.326 9.42485 178.607 10.1824 178.076 11.1663C177.545 12.1502 177.279 13.2914 177.279 14.5901C177.279 15.8888 177.545 17.0301 178.076 18.014C178.607 18.9979 179.326 19.7554 180.231 20.2867C181.156 20.818 182.169 21.0837 183.271 21.0837C184.412 21.0837 185.435 20.8278 186.341 20.3162C187.246 19.785 187.954 19.0274 188.466 18.0435C188.997 17.04 189.263 15.879 189.263 14.5606Z" fill="#00367B"/>
<path d="M196.193 3.49214C195.78 3.49214 195.426 3.34456 195.131 3.0494C194.835 2.75424 194.688 2.39021 194.688 1.95731C194.688 1.52441 194.835 1.17022 195.131 0.894734C195.426 0.599575 195.78 0.451996 196.193 0.451996C196.606 0.451996 196.961 0.599575 197.256 0.894734C197.551 1.17022 197.699 1.52441 197.699 1.95731C197.699 2.39021 197.551 2.75424 197.256 3.0494C196.961 3.34456 196.606 3.49214 196.193 3.49214ZM197.226 6.53229V22.648H195.16V6.53229H197.226Z" fill="#00367B"/>
<path d="M203.971 0.806189V22.648H201.905V0.806189H203.971Z" fill="#00367B"/>
<path d="M223.231 13.7637C223.231 14.4721 223.211 15.0132 223.172 15.3871H209.801C209.86 16.6071 210.155 17.65 210.686 18.5158C211.218 19.3816 211.916 20.0408 212.782 20.4933C213.648 20.9262 214.592 21.1427 215.616 21.1427C216.954 21.1427 218.075 20.818 218.98 20.1687C219.905 19.5193 220.515 18.6437 220.81 17.5417H222.995C222.601 19.1159 221.755 20.4048 220.456 21.4083C219.177 22.3922 217.564 22.8841 215.616 22.8841C214.1 22.8841 212.743 22.5496 211.542 21.8806C210.342 21.1919 209.398 20.2277 208.709 18.988C208.04 17.7287 207.705 16.2627 207.705 14.5901C207.705 12.9176 208.04 11.4516 208.709 10.1923C209.378 8.93291 210.313 7.96873 211.513 7.2997C212.713 6.63067 214.081 6.29616 215.616 6.29616C217.15 6.29616 218.489 6.63067 219.63 7.2997C220.791 7.96873 221.676 8.87388 222.286 10.0152C222.916 11.1368 223.231 12.3863 223.231 13.7637ZM221.135 13.7047C221.155 12.5043 220.909 11.4811 220.397 10.635C219.905 9.78888 219.226 9.14937 218.361 8.71647C217.495 8.28357 216.55 8.06712 215.527 8.06712C213.992 8.06712 212.684 8.55905 211.601 9.54291C210.519 10.5268 209.919 11.914 209.801 13.7047H221.135Z" fill="#00367B"/>
</svg>
